PathFileType	4	(X/Y/Z)	OpenSim_Sub07_CSBaseline_Accel.trc
DataRate	CameraRate	NumFrames	NumMarkers	Units	OrigDataRate	OrigDataStartFrame	OrigNumFrames
100	100	24	8	m	100	2921	7788
Frame#	Time	torso_imu_offset_imu	pelvis_imu_offset_imu	tibia_r_imu_offset_imu	femur_r_imu_offset_imu	tibia_l_imu_offset_imu	femur_l_imu_offset_imu	toes_r_imu_offset_imu	toes_l_imu_offset_imu
				X1	Y1	Z1	X2	Y2	Z2	X3	Y3	Z3	X4	Y4	Z4	X5	Y5	Z5	X6	Y6	Z6	X7	Y7	Z7	X8		Y8	Z8	

2921	29.20000000	-9.15562637	1.79535827	5.94482784	9.63083281	0.85399206	3.43350112	11.50305520	-2.06043784	-0.24002473	10.15606301	-2.60363413	-0.54990423	9.66331289	-5.48612027	0.54777649	13.05903316	3.39632707	-1.32798402	5.31415545	1.76718536	8.56461015	8.33074662	4.43866668	13.86766220
2922	29.21000000	-9.16003725	1.66176164	6.00148363	9.60049520	1.09804266	3.44502743	10.50290696	-1.52471181	-0.26387694	9.75805465	-2.38793755	-0.40017747	7.62827132	-6.90918299	1.53645489	12.98282564	4.17333547	-0.93189029	5.26103182	1.89159937	8.34567756	0.49122565	2.53822819	8.87657233
2923	29.22000000	-9.04140903	1.55380126	6.03115202	9.69757647	1.23580675	3.37403076	9.59821903	0.04154955	-0.61997441	9.21889331	-1.41432990	-0.14603852	5.41229625	-8.30550451	1.96330690	12.13952025	4.14755716	-0.31436364	5.08311331	1.71826724	8.55764576	2.32428731	-2.94706224	9.99971036
2924	29.23000000	-9.09594649	1.46913782	6.01550389	9.75303014	1.40989783	3.18614093	9.35304263	0.79671260	-1.54684248	8.92768128	-0.39728276	0.00192954	3.74702297	-9.65102956	2.97998168	12.24670991	3.55987949	0.58965576	4.90507455	1.66958711	8.59840799	34.95103066	-5.87431114	22.18828426
2925	29.24000000	-9.40624648	1.40190939	6.01461216	9.66491364	1.66718819	2.94723372	9.40570011	0.73437423	-2.59339660	9.01298702	0.41840189	-0.13619179	1.92574952	-11.79503321	3.86042662	12.58350361	3.62988947	0.84617876	4.85178421	1.64793741	8.59057881	32.80001293	9.44654229	24.70700323
2926	29.25000000	-9.65914521	1.25794108	5.96480819	9.41975355	1.83888020	2.75004100	9.33928310	2.14121277	-2.49599540	9.15285671	0.88646783	-0.44353282	0.35143493	-13.83013669	3.06325142	11.99905894	3.00932150	0.63399658	4.76525943	1.43955230	8.60208607	9.31275987	11.39745571	21.11875714
2927	29.26000000	-9.66365490	1.02302229	5.96711033	9.24495139	1.87081600	2.60825921	9.96606544	3.00953739	-2.27590053	9.36133202	1.11294025	-0.62622576	-0.29817750	-12.60027843	1.41385379	11.75292959	2.34308375	0.43676662	4.93206096	1.07299146	8.73257400	2.68555591	9.18036273	12.00037449
2928	29.27000000	-9.46075764	0.79746531	5.95618908	9.15205402	1.66843418	2.54932702	10.25021968	3.09215358	-1.90441582	9.46351040	1.27615837	-0.85890046	0.39377042	-9.16004117	1.16470837	11.02508295	2.08044763	0.50104187	5.06949780	0.78316254	8.69092001	-3.28270143	8.76423360	9.98487291
2929	29.28000000	-9.23568333	0.60879158	5.92178407	9.15163527	1.38338754	2.55100003	9.77974213	2.54444844	-1.47572980	9.41081327	1.35102860	-1.00358239	0.66366347	-5.94544699	2.20092491	9.87040640	1.92551540	0.68264859	5.19170374	0.87261057	8.54346500	-3.12123771	5.29223400	7.25461681
2930	29.29000000	-9.02365944	0.51212717	5.85490317	9.15533570	1.07469324	2.56598637	9.40094953	1.57629146	-1.03584761	9.50723359	1.24302715	-0.78254223	0.61234505	-4.02652883	3.94394251	9.24404244	1.99909307	0.84893231	5.40923396	1.05268543	8.50159105	-1.17754348	4.65423404	7.46763276
2931	29.30000000	-8.85752084	0.50098102	5.85933119	9.15810959	0.71908186	2.65012603	9.45770718	0.80247886	-0.64855034	9.61604989	0.80894004	-0.64883696	0.30397888	-3.09134023	5.52332430	9.21210581	2.14183705	0.70206679	5.76762511	1.23374787	8.26635643	0.53269202	5.10984963	8.03612207
2932	29.31000000	-8.70919643	0.55427539	5.87175438	9.16806490	0.43130709	2.56210480	9.67364506	0.42015975	-0.43405196	9.55049996	0.14290839	-0.37154080	-0.12724236	-3.12794178	6.30890149	9.15722799	2.05216688	0.37471440	5.29509143	1.26211845	8.39282908	1.42463476	5.82530740	8.54434976
2933	29.32000000	-8.58255352	0.62104973	5.92003276	9.10325863	0.21178907	2.57101492	9.90887087	0.33041932	-0.31983246	9.41818099	-0.51027269	-0.05023811	0.07883667	-3.40218620	6.69851738	9.21323247	2.39420217	-0.00370294	5.03814135	1.21989964	8.57438834	1.39219223	6.03050793	8.29010446
2934	29.33000000	-8.40771966	0.66323798	5.99061115	8.97698928	0.03842143	2.60145847	9.90903099	0.74415909	-0.19345283	9.37972106	-0.98581730	0.11445044	0.76244281	-3.04515452	7.02696764	9.41007105	2.41583281	-0.14073183	5.20196908	1.32518797	8.53182533	-0.03296092	5.10383474	7.41155284
2935	29.34000000	-8.22651373	0.62943808	6.02668979	8.84591004	0.05593120	2.55987943	9.76689850	1.13966153	-0.02370130	9.22912204	-1.20492957	0.23788139	1.40152485	-1.85249533	7.77335990	8.83174944	2.43287058	-0.33155213	5.33860350	1.49326776	8.44540531	-0.86380588	3.67198481	6.39794190
2936	29.35000000	-8.05478964	0.61935107	6.09230169	8.69204464	0.20379293	2.42723742	9.69403107	1.12724428	-0.09952645	9.06520345	-1.22180900	0.32822975	1.89758487	-0.27712430	9.29500752	8.61746507	2.08398448	-0.29726647	5.04411069	1.45914559	8.47221627	-0.03812393	2.34654854	5.82142660
2937	29.36000000	-8.05610285	0.58679693	6.19584269	8.65347642	0.47199601	2.31943450	9.65429518	1.12614130	0.00852851	9.00849139	-1.15773239	0.32874400	2.05665152	1.93793070	9.69966476	8.34876349	1.92915027	-0.41241293	4.90871896	1.35814405	8.57753397	1.10498100	1.55873344	5.68775507
2938	29.37000000	-8.02288517	0.61248643	6.23934494	8.63225782	0.77593287	2.30636241	9.59569158	1.22453318	0.10369425	9.00626324	-1.09084829	0.38015722	2.15140004	3.28274272	5.94196754	8.18664301	1.36638540	-0.58321536	4.74741274	1.38114507	8.63074642	1.79715745	1.24254123	5.88607168
2939	29.38000000	-7.91673369	0.63976368	6.27011771	8.66202323	1.02202297	2.39908134	9.52614514	1.51621919	-0.00903485	9.13172913	-1.10517630	0.44505052	2.55127677	0.90422091	0.22163601	7.92148505	0.86535138	-0.57248435	4.84233851	1.47523839	8.48629097	3.39637205	1.33565207	7.07697402
2940	29.39000000	-7.80334250	0.60075270	6.30827148	8.79944468	1.13622450	2.34834108	9.76391532	1.78814053	-0.01602697	9.27275876	-1.12998602	0.47380876	3.49661047	-4.15282947	-2.91061212	7.71579862	0.53802102	-0.38598901	5.06030837	1.38514353	8.48281569	6.12007191	0.79234049	8.98212960
2941	29.40000000	-7.76192681	0.64380948	6.33659928	9.00108672	1.05294170	2.26984281	9.71807038	1.58295037	-0.48728591	9.26884161	-1.23650344	0.39962365	4.89470781	-9.21879379	-3.41089173	7.51772237	0.34294221	-0.24643119	5.03821474	1.61892305	8.47543137	8.43836410	-0.28799295	11.12367168
2942	29.41000000	-7.84948395	0.68429197	6.36022515	9.07282947	0.97508692	2.11225734	9.86458011	1.02778193	-0.73797239	9.17766904	-1.26397532	0.42876410	6.83539500	-11.99050457	-3.26355965	7.45193739	0.24771558	-0.21725815	4.93420788	1.77050565	8.50523920	9.38504535	-1.45389006	12.15347507
2943	29.42000000	-7.95743008	0.72813226	6.37011981	9.10837638	1.02143289	1.94401061	9.97416271	0.84937704	-0.90944708	9.21730950	-1.28995441	0.54452657	8.22304402	-13.17295309	-2.54167335	7.54095572	0.30634597	-0.25072308	5.06737105	1.78612664	8.44318683	10.38478236	-1.99115148	12.15034709
2944	29.43000000	-8.07972708	0.81882109	6.40405824	9.22318736	0.97701130	1.85942431	9.99740588	1.31434065	-1.10927155	9.35526863	-1.17933276	0.54489629	8.46103105	-13.35013432	-1.07821511	7.78862590	0.41796870	-0.15778334	5.21775089	1.64410776	8.41172245	11.41293286	-2.33802858	11.83526611
